<svg xmlns="http://www.w3.org/2000/svg" xmlns:xlink="http://www.w3.org/1999/xlink" width="780" height="150" viewBox="0 0 780 150"><defs><style>.a{fill:#f9de67;}.b{clip-path:url(#a);}.c{fill:#030504;opacity:0.2;}.d,.j{fill:#fff;}.e{fill:#021833;}.f{fill:#92a444;}.g{fill:#ffb807;}.h{fill:#e6535d;}.i{fill:#1e7cee;}.j{opacity:0.5;}</style><clipPath id="a"><rect class="a" width="780" height="150" rx="4" transform="translate(331 908)"/></clipPath></defs><g transform="translate(-332 -908)"><rect class="a" width="780" height="150" rx="4" transform="translate(332 908)"/><g class="b" transform="translate(1)"><g transform="translate(523.211 936.868)"><rect class="c" width="388.614" height="273.294" transform="translate(6.945 6.765)"/><rect class="d" width="388.614" height="274.8"/><rect class="e" width="388.614" height="247.926" transform="translate(0 13.436)"/><circle class="f" cx="3.124" cy="3.124" r="3.124" transform="translate(373.555 4.087)"/><circle class="g" cx="3.124" cy="3.124" r="3.124" transform="translate(363.859 4.087)"/><circle class="h" cx="3.124" cy="3.124" r="3.124" transform="translate(354.163 4.087)"/><rect class="i" width="21.906" height="247.926" transform="translate(0 13.436)"/><rect class="d" width="83.827" height="5.692" rx="2.846" transform="translate(34.703 30.46)"/><rect class="d" width="48.686" height="5.692" rx="2.846" transform="translate(44.511 41.366)"/><rect class="d" width="54.387" height="5.692" rx="2.846" transform="translate(69.151 59.037)"/><rect class="d" width="83.827" height="5.692" rx="2.846" transform="translate(70.142 71.358)"/><rect class="d" width="34.209" height="5.692" rx="2.846" transform="translate(44.511 83.676)"/><rect class="d" width="53.716" height="5.692" rx="2.846" transform="translate(44.511 95.995)"/><rect class="d" width="19.816" height="5.692" rx="2.846" transform="translate(68.213 108.315)"/><rect class="d" width="83.827" height="5.692" rx="2.846" transform="translate(114.535 41.366)"/><rect class="d" width="50.066" height="5.692" rx="2.846" transform="translate(137.299 59.037)"/><rect class="d" width="35.828" height="5.692" rx="2.846" transform="translate(169.84 71.358)"/><rect class="d" width="83.827" height="5.692" rx="2.846" transform="translate(98.074 83.676)"/><rect class="d" width="41.913" height="5.692" rx="2.846" transform="translate(117.53 95.995)"/><rect class="d" width="37.837" height="5.692" rx="2.846" transform="translate(98.067 108.315)"/><rect class="d" width="56.114" height="5.692" rx="2.846" transform="translate(214.414 41.366)"/><rect class="d" width="56.114" height="5.692" rx="2.846" transform="translate(310.873 59.037)"/><rect class="d" width="83.827" height="5.692" rx="2.846" transform="translate(205.833 59.037)"/><rect class="d" width="83.827" height="5.692" rx="2.846" transform="translate(223.746 71.358)"/><rect class="d" width="32.598" height="5.692" rx="2.846" transform="translate(196.557 83.676)"/><rect class="d" width="57.36" height="5.692" rx="2.846" transform="translate(150.339 108.315)"/><rect class="d" width="60.684" height="5.692" rx="2.846" transform="translate(34.703 125.365)"/><rect class="d" width="48.686" height="5.692" rx="2.846" transform="translate(44.511 137.685)"/><rect class="d" width="54.387" height="5.692" rx="2.846" transform="translate(69.151 150.004)"/><rect class="d" width="83.827" height="5.692" rx="2.846" transform="translate(70.142 162.323)"/><rect class="d" width="34.209" height="5.692" rx="2.846" transform="translate(169.665 214.735)"/><rect class="d" width="53.716" height="5.692" rx="2.846" transform="translate(44.511 186.963)"/><rect class="d" width="19.816" height="5.692" rx="2.846" transform="translate(68.213 199.282)"/><rect class="d" width="83.827" height="5.692" rx="2.846" transform="translate(114.535 137.685)"/><rect class="d" width="50.066" height="5.692" rx="2.846" transform="translate(137.299 150.004)"/><rect class="d" width="35.828" height="5.692" rx="2.846" transform="translate(169.84 162.323)"/><rect class="d" width="83.827" height="5.692" rx="2.846" transform="translate(219.705 214.735)"/><rect class="d" width="41.913" height="5.692" rx="2.846" transform="translate(117.53 186.963)"/><rect class="d" width="53.716" height="5.692" rx="2.846" transform="translate(43.107 214.735)"/><rect class="d" width="41.913" height="5.692" rx="2.846" transform="translate(115.924 214.735)"/><rect class="d" width="37.837" height="5.692" rx="2.846" transform="translate(98.067 199.282)"/><rect class="d" width="56.114" height="5.692" rx="2.846" transform="translate(214.414 137.685)"/><rect class="d" width="37.3" height="5.692" rx="2.846" transform="translate(219.023 162.323)"/><rect class="d" width="35.828" height="5.692" rx="2.846" transform="translate(111.094 174.644)"/><rect class="d" width="37.3" height="5.692" rx="2.846" transform="translate(160.242 174.644)"/><rect class="d" width="32.598" height="5.692" rx="2.846" transform="translate(67.642 174.644)"/><rect class="d" width="57.36" height="5.692" rx="2.846" transform="translate(150.339 199.282)"/><rect class="j" width="13.612" height="11.059" rx="5.53" transform="translate(4.095 30.076)"/><rect class="j" width="13.612" height="11.059" rx="5.53" transform="translate(4.095 51.278)"/><rect class="j" width="13.612" height="11.059" rx="5.53" transform="translate(4.095 68.499)"/><rect class="j" width="13.612" height="11.059" rx="5.53" transform="translate(4.095 85.722)"/><rect class="j" width="13.612" height="11.059" rx="5.53" transform="translate(4.095 102.943)"/></g></g></g></svg>