<svg xmlns="http://www.w3.org/2000/svg" width="28" height="28" viewBox="0 0 28 28">
  <g id="Path_5" data-name="Path 5" transform="translate(56 224)">
    <path d="M -36.99990081787109 -200.0001983642578 C -36.01850128173828 -200.0001983642578 -34.92529296875 -200.8251800537109 -34.00057220458984 -202.2635650634766 C -32.72912216186523 -204.2413177490234 -31.99990081787109 -207.06103515625 -31.99990081787109 -209.9997100830078 C -31.99990081787109 -212.9384765625 -32.72915267944336 -215.7584075927734 -34.00065231323242 -217.7364196777344 C -34.92542266845703 -219.1750183105469 -36.01860046386719 -220.0001068115234 -36.99990081787109 -220.0001068115234 C -37.85227203369141 -220.0001068115234 -38.62052154541016 -219.3864898681641 -39.11490249633789 -218.8717346191406 L -41.99986267089844 -215.8678588867188 L -44.88481140136719 -218.8717498779297 C -45.37918090820312 -219.3864898681641 -46.14742279052734 -220.0001068115234 -46.99980163574219 -220.0001068115234 C -47.98110198974609 -220.0001068115234 -49.07427978515625 -219.1750183105469 -49.99905014038086 -217.7364196777344 C -51.27054977416992 -215.7584075927734 -51.99980163574219 -212.9384765625 -51.99980163574219 -209.9997100830078 C -51.99980163574219 -207.06103515625 -51.27058029174805 -204.2413177490234 -49.99913024902344 -202.2635650634766 C -49.07440948486328 -200.8251800537109 -47.981201171875 -200.0001983642578 -46.99980163574219 -200.0001983642578 C -46.14729309082031 -200.0001983642578 -45.37903213500977 -200.6137390136719 -44.88466262817383 -201.1284484863281 L -41.99986267089844 -204.1318359375 L -39.11505126953125 -201.1284484863281 C -38.62067031860352 -200.6137542724609 -37.85240173339844 -200.0001983642578 -36.99990081787109 -200.0001983642578 M -36.99990081787109 -196.0001983642578 C -38.84996032714844 -196.0001983642578 -40.56982040405273 -196.8687286376953 -41.99985122680664 -198.3575439453125 C -43.42987060546875 -196.8687286376953 -45.14974212646484 -196.0001983642578 -46.99980163574219 -196.0001983642578 C -51.97050094604492 -196.0001983642578 -55.99980163574219 -202.2678070068359 -55.99980163574219 -209.9997100830078 C -55.99980163574219 -217.7315979003906 -51.97050094604492 -224.0001068115234 -46.99980163574219 -224.0001068115234 C -45.14974212646484 -224.0001068115234 -43.42987060546875 -223.1314544677734 -41.99985122680664 -221.6424865722656 C -40.56982040405273 -223.1314544677734 -38.84996032714844 -224.0001068115234 -36.99990081787109 -224.0001068115234 C -32.02920150756836 -224.0001068115234 -27.99990081787109 -217.7315979003906 -27.99990081787109 -209.9997100830078 C -27.99990081787109 -202.2678070068359 -32.02920150756836 -196.0001983642578 -36.99990081787109 -196.0001983642578 Z" fill="#666"/>
  </g>
  <g id="Path_6" data-name="Path 6" transform="translate(10 0)">
    <path d="M 9 4 C 8.01869010925293 4 6.925510406494141 4.825029373168945 6.000749588012695 6.263530731201172 C 4.729249954223633 8.241430282592773 4 11.06126976013184 4 14 C 4 16.93873023986816 4.729249954223633 19.75856018066406 6.000749588012695 21.73645973205566 C 6.925510406494141 23.17497062683105 8.01869010925293 24 9 24 C 9.98130989074707 24 11.07448959350586 23.17497062683105 11.9992504119873 21.73645973205566 C 13.27075004577637 19.75856018066406 14 16.93873023986816 14 14 C 14 11.06126976013184 13.27075004577637 8.241430282592773 11.9992504119873 6.263530731201172 C 11.07448959350586 4.825029373168945 9.98130989074707 4 9 4 M 9 0 C 13.97056007385254 0 18 6.268009185791016 18 14 C 18 21.73197937011719 13.97056007385254 28 9 28 C 4.029439926147461 28 0 21.73197937011719 0 14 C 0 6.268009185791016 4.029439926147461 0 9 0 Z" fill="#666"/>
  </g>
  <g id="Path_8" data-name="Path 8" transform="translate(2 10)">
    <path d="M 4 0 C 6.209139823913574 0 8 1.790860176086426 8 4 C 8 6.209139823913574 6.209139823913574 8 4 8 C 1.790860176086426 8 0 6.209139823913574 0 4 C 0 1.790860176086426 1.790860176086426 0 4 0 Z" fill="#666"/>
  </g>
  <g id="Path_7" data-name="Path 7" transform="translate(12 10)">
    <path d="M 4 0 C 6.209139823913574 0 8 1.790860176086426 8 4 C 8 6.209139823913574 6.209139823913574 8 4 8 C 1.790860176086426 8 0 6.209139823913574 0 4 C 0 1.790860176086426 1.790860176086426 0 4 0 Z" fill="#666"/>
  </g>
</svg>
